<svg width="99" height="25" viewBox="0 0 99 25" fill="none" xmlns="http://www.w3.org/2000/svg">
<path fill-rule="evenodd" clip-rule="evenodd" d="M63.1124 0.357811C71.3226 1.69494 77.415 6.62399 77.415 12.5C77.415 18.376 71.3226 23.3051 63.1124 24.6422C64.5481 24.876 66.0486 25 67.5926 25C77.9661 25 86.3755 19.4036 86.3755 12.5C86.3755 5.59644 77.9661 -4.17232e-07 67.5926 -4.17232e-07C66.0486 -4.17232e-07 64.5481 0.123985 63.1124 0.357811Z" fill="#FCA311"/>
<rect x="72.5548" y="10.1514" width="13.1754" height="4.855" fill="#FCA311"/>
<path fill-rule="evenodd" clip-rule="evenodd" d="M25.7382 24.6422C17.5279 23.305 11.4357 18.376 11.4357 12.5C11.4357 6.62401 17.5279 1.69497 25.7382 0.357823C24.3024 0.123989 22.8019 0 21.2578 0C10.8843 0 2.47498 5.59644 2.47498 12.5C2.47498 19.4036 10.8843 25 21.2578 25C22.8019 25 24.3024 24.876 25.7382 24.6422Z" fill="#14213D"/>
<path fill-rule="evenodd" clip-rule="evenodd" d="M25.7382 24.6422C17.5279 23.305 11.4357 18.376 11.4357 12.5C11.4357 6.62401 17.5279 1.69497 25.7382 0.357823C24.3024 0.123989 22.8019 0 21.2578 0C10.8843 0 2.47498 5.59644 2.47498 12.5C2.47498 19.4036 10.8843 25 21.2578 25C22.8019 25 24.3024 24.876 25.7382 24.6422Z" fill="#14213D"/>
<rect x="3.13379" y="10.1514" width="13.1754" height="4.855" fill="#14213D"/>
<path d="M17.202 17.12C16.57 17.12 16.086 16.94 15.75 16.58C15.422 16.22 15.258 15.712 15.258 15.056V10.544C15.258 9.888 15.422 9.38 15.75 9.02C16.086 8.66 16.57 8.48 17.202 8.48C17.834 8.48 18.314 8.66 18.642 9.02C18.978 9.38 19.146 9.888 19.146 10.544V11.432H17.898V10.46C17.898 9.94 17.678 9.68 17.238 9.68C16.798 9.68 16.578 9.94 16.578 10.46V15.152C16.578 15.664 16.798 15.92 17.238 15.92C17.678 15.92 17.898 15.664 17.898 15.152V13.868H19.146V15.056C19.146 15.712 18.978 16.22 18.642 16.58C18.314 16.94 17.834 17.12 17.202 17.12ZM19.9357 8.6H21.2557V15.8H23.4277V17H19.9357V8.6ZM24.0607 8.6H25.3807V17H24.0607V8.6ZM26.3693 8.6H28.3133C28.9693 8.6 29.4613 8.776 29.7893 9.128C30.1173 9.48 30.2813 9.996 30.2813 10.676V11.504C30.2813 12.184 30.1173 12.7 29.7893 13.052C29.4613 13.404 28.9693 13.58 28.3133 13.58H27.6893V17H26.3693V8.6ZM28.3133 12.38C28.5293 12.38 28.6893 12.32 28.7933 12.2C28.9053 12.08 28.9613 11.876 28.9613 11.588V10.592C28.9613 10.304 28.9053 10.1 28.7933 9.98C28.6893 9.86 28.5293 9.8 28.3133 9.8H27.6893V12.38H28.3133ZM32.7611 17.12C32.1211 17.12 31.6371 16.94 31.3091 16.58C30.9811 16.212 30.8171 15.688 30.8171 15.008V14.528H32.0651V15.104C32.0651 15.648 32.2931 15.92 32.7491 15.92C32.9731 15.92 33.1411 15.856 33.2531 15.728C33.3731 15.592 33.4331 15.376 33.4331 15.08C33.4331 14.728 33.3531 14.42 33.1931 14.156C33.0331 13.884 32.7371 13.56 32.3051 13.184C31.7611 12.704 31.3811 12.272 31.1651 11.888C30.9491 11.496 30.8411 11.056 30.8411 10.568C30.8411 9.904 31.0091 9.392 31.3451 9.032C31.6811 8.664 32.1691 8.48 32.8091 8.48C33.4411 8.48 33.9171 8.664 34.2371 9.032C34.5651 9.392 34.7291 9.912 34.7291 10.592V10.94H33.4811V10.508C33.4811 10.22 33.4251 10.012 33.3131 9.884C33.2011 9.748 33.0371 9.68 32.8211 9.68C32.3811 9.68 32.1611 9.948 32.1611 10.484C32.1611 10.788 32.2411 11.072 32.4011 11.336C32.5691 11.6 32.8691 11.92 33.3011 12.296C33.8531 12.776 34.2331 13.212 34.4411 13.604C34.6491 13.996 34.7531 14.456 34.7531 14.984C34.7531 15.672 34.5811 16.2 34.2371 16.568C33.9011 16.936 33.4091 17.12 32.7611 17.12ZM35.5099 8.6H39.1099V9.8H36.8299V12.02H38.6419V13.22H36.8299V15.8H39.1099V17H35.5099V8.6ZM41.7912 8.6H45.3912V9.8H43.1112V12.02H44.9232V13.22H43.1112V15.8H45.3912V17H41.7912V8.6ZM45.9586 12.2H48.5986V13.4H45.9586V12.2ZM51.1009 17.12C50.4609 17.12 49.9769 16.94 49.6489 16.58C49.3209 16.212 49.1569 15.688 49.1569 15.008V14.528H50.4049V15.104C50.4049 15.648 50.6329 15.92 51.0889 15.92C51.3129 15.92 51.4809 15.856 51.5929 15.728C51.7129 15.592 51.7729 15.376 51.7729 15.08C51.7729 14.728 51.6929 14.42 51.5329 14.156C51.3729 13.884 51.0769 13.56 50.6449 13.184C50.1009 12.704 49.7209 12.272 49.5049 11.888C49.2889 11.496 49.1809 11.056 49.1809 10.568C49.1809 9.904 49.3489 9.392 49.6849 9.032C50.0209 8.664 50.5089 8.48 51.1489 8.48C51.7809 8.48 52.2569 8.664 52.5769 9.032C52.9049 9.392 53.0689 9.912 53.0689 10.592V10.94H51.8209V10.508C51.8209 10.22 51.7649 10.012 51.6529 9.884C51.5409 9.748 51.3769 9.68 51.1609 9.68C50.7209 9.68 50.5009 9.948 50.5009 10.484C50.5009 10.788 50.5809 11.072 50.7409 11.336C50.9089 11.6 51.2089 11.92 51.6409 12.296C52.1929 12.776 52.5729 13.212 52.7809 13.604C52.9889 13.996 53.0929 14.456 53.0929 14.984C53.0929 15.672 52.9209 16.2 52.5769 16.568C52.2409 16.936 51.7489 17.12 51.1009 17.12ZM53.8498 8.6H55.7938C56.4498 8.6 56.9418 8.776 57.2698 9.128C57.5978 9.48 57.7618 9.996 57.7618 10.676V11.504C57.7618 12.184 57.5978 12.7 57.2698 13.052C56.9418 13.404 56.4498 13.58 55.7938 13.58H55.1698V17H53.8498V8.6ZM55.7938 12.38C56.0098 12.38 56.1698 12.32 56.2738 12.2C56.3858 12.08 56.4418 11.876 56.4418 11.588V10.592C56.4418 10.304 56.3858 10.1 56.2738 9.98C56.1698 9.86 56.0098 9.8 55.7938 9.8H55.1698V12.38H55.7938ZM60.3867 17.12C59.7387 17.12 59.2427 16.936 58.8987 16.568C58.5547 16.2 58.3827 15.68 58.3827 15.008V10.592C58.3827 9.92 58.5547 9.4 58.8987 9.032C59.2427 8.664 59.7387 8.48 60.3867 8.48C61.0347 8.48 61.5307 8.664 61.8747 9.032C62.2187 9.4 62.3907 9.92 62.3907 10.592V15.008C62.3907 15.68 62.2187 16.2 61.8747 16.568C61.5307 16.936 61.0347 17.12 60.3867 17.12ZM60.3867 15.92C60.8427 15.92 61.0707 15.644 61.0707 15.092V10.508C61.0707 9.956 60.8427 9.68 60.3867 9.68C59.9307 9.68 59.7027 9.956 59.7027 10.508V15.092C59.7027 15.644 59.9307 15.92 60.3867 15.92ZM63.2834 8.6H65.2394C65.9194 8.6 66.4154 8.76 66.7274 9.08C67.0394 9.392 67.1954 9.876 67.1954 10.532V11.048C67.1954 11.92 66.9074 12.472 66.3314 12.704V12.728C66.6514 12.824 66.8754 13.02 67.0034 13.316C67.1394 13.612 67.2074 14.008 67.2074 14.504V15.98C67.2074 16.22 67.2154 16.416 67.2314 16.568C67.2474 16.712 67.2874 16.856 67.3514 17H66.0074C65.9594 16.864 65.9274 16.736 65.9114 16.616C65.8954 16.496 65.8874 16.28 65.8874 15.968V14.432C65.8874 14.048 65.8234 13.78 65.6954 13.628C65.5754 13.476 65.3634 13.4 65.0594 13.4H64.6034V17H63.2834V8.6ZM65.0834 12.2C65.3474 12.2 65.5434 12.132 65.6714 11.996C65.8074 11.86 65.8754 11.632 65.8754 11.312V10.664C65.8754 10.36 65.8194 10.14 65.7074 10.004C65.6034 9.868 65.4354 9.8 65.2034 9.8H64.6034V12.2H65.0834ZM69.1318 9.8H67.7518V8.6H71.8318V9.8H70.4518V17H69.1318V9.8Z" fill="url(#paint0_linear_3_252)"/>
<defs>
<linearGradient id="paint0_linear_3_252" x1="87.8625" y1="12" x2="8.04373" y2="12" gradientUnits="userSpaceOnUse">
<stop stop-color="#14213D"/>
<stop offset="1" stop-color="#14213D"/>
</linearGradient>
</defs>
</svg>
