<svg width="150" height="150" viewBox="0 0 150 150" fill="none" xmlns="http://www.w3.org/2000/svg">
<path fill-rule="evenodd" clip-rule="evenodd" d="M112.5 2.14691C72.7955 10.1698 43.3334 39.744 43.3334 75C43.3334 110.256 72.7955 139.83 112.5 147.853C105.557 149.256 98.3002 150 90.8333 150C40.6675 150 0 116.421 0 75C0 33.5786 40.6675 0 90.8333 0C98.3002 0 105.557 0.743927 112.5 2.14691Z" fill="#FCA311"/>
<path fill-rule="evenodd" clip-rule="evenodd" d="M112.5 2.14691C72.7955 10.1698 43.3334 39.744 43.3334 75C43.3334 110.256 72.7955 139.83 112.5 147.853C105.557 149.256 98.3002 150 90.8333 150C40.6675 150 0 116.421 0 75C0 33.5786 40.6675 0 90.8333 0C98.3002 0 105.557 0.743927 112.5 2.14691Z" fill="#FCA311"/>
<rect x="3.18579" y="60.9075" width="63.7159" height="29.13" fill="#FCA311"/>
<path fill-rule="evenodd" clip-rule="evenodd" d="M37.5 147.853C77.2045 139.83 106.667 110.256 106.667 75C106.667 39.744 77.2045 10.1698 37.5 2.14691C44.4433 0.743921 51.6998 -6.31809e-06 59.1667 -6.31809e-06C109.333 -6.31809e-06 150 33.5786 150 75C150 116.421 109.333 150 59.1667 150C51.6998 150 44.4433 149.256 37.5 147.853Z" fill="#14213D"/>
<rect x="83.1631" y="60.9075" width="63.7159" height="29.13" fill="#14213D"/>
</svg>
